<svg width="75" height="74" viewBox="0 0 75 74" fill="none" xmlns="http://www.w3.org/2000/svg">
<path d="M31.5271 31.0698C31.1104 32.0194 30.529 32.7189 29.8543 33.5032C28.7364 34.8486 27.8129 36.2036 26.9771 37.7365C26.7752 38.0969 26.7752 38.0969 26.5693 38.4646C22.9715 45.2062 22.6186 52.8363 24.8226 60.0723C25.9882 63.7002 27.6569 66.8589 30.1888 69.7365C31.5271 71.2829 31.5271 71.2829 31.5271 71.8698C25.0877 74.3238 19.1887 74.4224 12.7918 71.6032C7.08169 69.0244 3.57775 64.2736 1.25892 58.6261C-0.563022 53.5144 -0.43355 47.7252 1.81826 42.8032C1.89705 42.6267 1.97584 42.4502 2.05702 42.2684C4.60725 36.6977 9.00763 32.8298 14.6653 30.5365C20.3285 28.4735 26.0112 28.7593 31.5271 31.0698Z" fill="#3F391D"/>
<path d="M31.2594 42.5365C32.2928 42.6442 32.7668 43.1587 33.4843 43.8698C37.6625 47.7149 43.7593 50.3488 49.4594 50.5365C49.6301 50.5434 49.8008 50.5502 49.9767 50.5573C57.4588 50.8278 64.5918 48.3828 70.3359 43.6032C70.5253 43.4038 70.7147 43.2044 70.9099 42.999C71.4065 42.5365 71.4065 42.5365 72.2094 42.5365C74.5691 47.6084 74.6466 53.1292 72.9852 58.4063C70.8248 64.2735 66.9095 68.8678 61.2359 71.6032C55.5904 74.1763 49.4865 74.4484 43.6381 72.3365C37.9892 69.9937 33.6399 66.0717 31.2129 60.4092C29.4036 55.9961 28.3338 50.9246 29.9212 46.2698C30.0126 45.9625 30.1041 45.6552 30.1983 45.3386C30.289 45.0409 30.3797 44.7432 30.4732 44.4365C30.6104 43.9838 30.6104 43.9838 30.7503 43.5219C30.9918 42.8032 30.9918 42.8032 31.2594 42.5365Z" fill="#3F391D"/>
<path d="M36.5068 4.96984C37.1885 5.56174 37.8412 6.17154 38.4859 6.80317C38.6732 6.98639 38.8606 7.16961 39.0536 7.35838C43.5439 12.059 44.8208 18.0529 44.7108 24.349C44.6535 25.9581 44.369 27.4161 43.8388 28.9365C43.7622 29.1754 43.6857 29.4143 43.6067 29.6605C43.4244 30.2218 43.2315 30.7797 43.0359 31.3365C41.9992 31.1873 41.5418 30.7274 40.8111 30.0032C38.0306 27.4482 34.7755 25.9571 31.2594 24.6698C31.0286 24.5736 30.7978 24.4773 30.56 24.3782C24.5573 22.1073 16.6478 23.1387 10.9015 25.6709C8.12707 26.9565 5.3806 28.5712 3.21817 30.7501C2.62119 31.3365 2.62119 31.3365 2.0859 31.3365C1.87094 30.7766 1.65985 30.2151 1.45024 29.6532C1.33224 29.3407 1.21425 29.0282 1.09268 28.7063C-0.782419 23.1322 -0.0223873 17.5657 2.40373 12.3532C5.26056 6.94938 9.90411 2.95434 15.6909 0.917758C22.7766 -1.15401 30.7818 0.317693 36.5068 4.96984Z" fill="#3F391D"/>
<path d="M53.7418 0.136482C54.1615 0.148857 54.1615 0.148857 54.5897 0.161482C59.0292 0.416792 63.3453 2.8053 66.5888 5.73648C66.8307 5.94961 67.0726 6.16273 67.3217 6.38232C70.3355 9.18982 72.0981 12.4878 73.28 16.4031C73.3737 16.7022 73.3737 16.7022 73.4693 17.0073C73.8836 18.4684 73.9931 19.9611 74.083 21.4698C74.0975 21.6747 74.1119 21.8796 74.1269 22.0906C74.3422 27.8256 71.9182 33.3002 68.1278 37.5198C64.5778 41.3181 59.4003 44.0817 54.1387 44.4503C50.0028 44.5453 46.2395 44.5123 42.5006 42.5365C42.7289 42.2307 42.9576 41.9252 43.1865 41.6198C43.3338 41.4228 43.4811 41.2259 43.6329 41.0229C43.9335 40.6295 44.2403 40.2406 44.555 39.8584C49.4441 33.8898 51.1782 26.7564 50.7433 19.1906C50.0882 13.2595 47.3376 7.24736 43.0359 3.06982C42.8593 2.89382 42.6826 2.71782 42.5006 2.53648C42.5006 2.36048 42.5006 2.18448 42.5006 2.00315C46.1925 0.333496 49.7497 -0.0181712 53.7418 0.136482Z" fill="#3F391D"/>
</svg>
